{"title":"DeJ Loaf - Try Me [1080p]","uid":12862432,"size":83896054,"categoryP":"video","categoryS":"music_videos","magnet":"?xt=urn:btih:f33cc42ab47ad85a161d0096ff68a0f2e6572804&amp;dn=DeJ+Loaf+-+Try+Me+%5B1080p%5D&amp;tr=udp%3A%2F%2Ftracker.leechers-paradise.org%3A6969&amp;tr=udp%3A%2F%2Fzer0day.ch%3A1337&amp;tr=udp%3A%2F%2Fopen.demonii.com%3A1337&amp;tr=udp%3A%2F%2Ftracker.coppersurfer.tk%3A6969&amp;tr=udp%3A%2F%2Fexodus.desync.com%3A6969","seeders":2,"leechers":0,"uploader":"MusicVideos-HQ","files":1,"time":1448753413,"description":"General\r\n\r\nFormat                         : MPEG-4\r\nFormat profile                 : Base Media\r\nCodec ID                       : isom\r\nFile size                      : 80.0 MiB\r\nDuration                       : 3mn 44s\r\nOverall bit rate               : 2 995 Kbps\r\nWriting application            : Lavf56.40.101\r\n\r\nVideo\r\nID                             : 1\r\nFormat                         : AVC\r\nFormat/Info                    : Advanced Video Codec\r\nFormat profile                 :   \r\nFormat settings, CABAC         : Yes\r\nFormat settings, ReFrames      : 3 frames\r\nCodec ID                       : avc1\r\nCodec ID/Info                  : Advanced Video Coding\r\nDuration                       : 3mn 44s\r\nDuration_FirstFrame            : -33ms\r\nBit rate                       : 2 734 Kbps\r\nWidth                          : 1 920 pixels\r\nHeight                         : 1 080 pixels\r\nDisplay aspect ratio           : 16:9\r\nFrame rate mode                : Variable\r\nFrame rate                     : 29.970 fps\r\nMinimum frame rate             : 29.970 fps\r\nMaximum frame rate             : 29.990 fps\r\nColor space                    : YUV\r\nChroma subsampling             : 4:2:0\r\nBit depth                      : 8 bits\r\nScan type                      : Progressive\r\nBits/(Pixel*Frame)             : 0.044\r\nStream size                    : 73.0 MiB (91%)\r\n\r\nAudio\r\nID                             : 2\r\nFormat                         : AAC\r\nFormat/Info                    : Advanced Audio Codec\r\nFormat profile                 : LC\r\nCodec ID                       : 40\r\nDuration                       : 3mn 44s\r\nBit rate mode                  : Constant\r\nBit rate                       : 254 Kbps\r\nChannel(s)                     : 2 channels\r\nChannel positions              : Front: L R\r\nSampling rate                  : 44.1 KHz\r\nCompression mode               : Lossy\r\nStream size                    : 6.78 MiB (8%)","torrent":{"xt":"urn:btih:f33cc42ab47ad85a161d0096ff68a0f2e6572804","amp;dn":"DeJ+Loaf+-+Try+Me+%5B1080p%5D","amp;tr":["udp%3A%2F%2Ftracker.leechers-paradise.org%3A6969","udp%3A%2F%2Fzer0day.ch%3A1337","udp%3A%2F%2Fopen.demonii.com%3A1337","udp%3A%2F%2Ftracker.coppersurfer.tk%3A6969","udp%3A%2F%2Fexodus.desync.com%3A6969"],"infoHash":"f33cc42ab47ad85a161d0096ff68a0f2e6572804","infoHashBuffer":{"type":"Buffer","data":[243,60,196,42,180,122,216,90,22,29,0,150,255,104,160,242,230,87,40,4]},"announce":[],"urlList":[]}}